<svg data-v-48faa7cd="" version="1.0" xmlns="http://www.w3.org/2000/svg" width="100%" height="100%" viewBox="0 0 178 61" preserveAspectRatio="xMidYMid meet" color-interpolation-filters="sRGB" class="el-tooltip" style="margin: auto;">  <g data-v-48faa7cd="" fill="#333" class="iconsvg" transform=""><g class="iconsvg-imagesvg" transform="translate(0,0)"><rect fill="#333" fill-opacity="0" x="0" y="0" width="47.598670544246" height="60"></rect> <svg filter="url(#colors8946135106)" x="0" y="0" width="47.598670544246" height="60" class="imagesvg-svg"><svg xmlns="http://www.w3.org/2000/svg" viewBox="0 0 190.95 240.7"><g><g fill="none" stroke="#000000" stroke-width="20"><path d="M32.05 158.2Q10 130.65 10 96.6q0-36 25.25-61.35Q60.15 10.45 95.4 10q35.25.45 60.3 25.25Q180.95 60.6 181 96.6q0 34.05-22.15 61.6l-35.6 38.15m-14-16.1l-5.2-6" stroke-linecap="square" stroke-miterlimit="3"></path><path d="M65.75 129.75a22.82 22.82 0 0 1-6.15-18.55 24.71 24.71 0 0 1 27.05-23.35 21.57 21.57 0 0 1 11 3.45 21.15 21.15 0 0 1 6.2 5.1l27.5 31.8" stroke-linecap="round" stroke-linejoin="round"></path><path stroke-linecap="square" stroke-linejoin="round" d="M123.2 196.35l-14-16.1"></path><path d="M104 174.25l-38.25-44.5m29.9 100.95l-63.6-72.5" stroke-linecap="round" stroke-miterlimit="3"></path></g></g></svg></svg> <defs><filter id="colors8946135106"><feColorMatrix type="matrix" values="0 0 0 0 0.19921875  0 0 0 0 0.19921875  0 0 0 0 0.19921875  0 0 0 1 0"></feColorMatrix></filter></defs></g> <g transform="translate(54.598670959472656,11.619998931884766)"><g class="iconsvg-namesvg"><g><path transform="translate(-2.3828125,31.4453125)" d="M21.91 1.82L21.91-12.36L9.32-12.36L9.32 1.82L2.38 1.82L2.38-30.51L9.32-30.51L9.32-18.22L21.91-18.22L21.91-30.51L28.85-30.51L28.85 1.82L21.91 1.82ZM40.16-8.50L40.16-8.50L40.16-4.55L40.16-4.55Q40.16-3.26 41.46-3.26L41.46-3.26L55.35-3.26L55.35-1.29L55.35-1.29Q55.35 0.31 54.57 1.05L54.57 1.05L54.57 1.05Q53.81 1.80 52.13 1.80L52.13 1.80L38.59 1.80L38.59 1.80Q36.86 1.80 36.07 1.48L36.07 1.48L36.07 1.48Q34.47 0.88 33.81-0.66L33.81-0.66L33.81-0.66Q33.50-1.41 33.50-3.09L33.50-3.09L33.50-17.77L33.50-17.77Q33.50-19.04 33.73-19.61L33.73-19.61L33.73-19.61Q34.24-20.78 35.47-21.25L35.47-21.25L35.47-21.25Q36.05-21.48 37.40-21.48L37.40-21.48L51.45-21.48L51.45-21.48Q52.77-21.48 53.38-21.25L53.38-21.25L53.38-21.25Q54.61-20.78 55.12-19.61L55.12-19.61L55.12-19.61Q55.35-19.04 55.35-17.77L55.35-17.77L55.35-10.74L55.35-10.74Q55.35-9.47 55.12-8.91L55.12-8.91L55.12-8.91Q54.61-7.73 53.38-7.27L53.38-7.27L53.38-7.27Q52.77-7.03 51.45-7.03L51.45-7.03L43.75-7.03L43.75-7.03Q41.66-7.03 40.74-7.83L40.74-7.83L40.74-7.83Q40.45-8.09 40.16-8.50ZM40.16-15.68L40.16-11.84L47.97-11.84L47.97-11.84Q48.95-11.84 48.95-12.91L48.95-12.91L48.95-15.61L48.95-15.61Q48.95-16.68 47.97-16.68L47.97-16.68L41.13-16.68L41.13-16.68Q40.16-16.68 40.16-15.68L40.16-15.68ZM64.53 5.31L67.54-1.76L59.96-21.50L65.27-21.50L65.27-21.50Q66.25-21.50 66.72-21.17L66.72-21.17L66.72-21.17Q67.19-20.84 67.50-19.92L67.50-19.92L71.02-9.94L75.27-19.96L75.27-19.96Q75.66-20.88 76.13-21.19L76.13-21.19L76.13-21.19Q76.60-21.50 77.60-21.50L77.60-21.50L82.91-21.50L72.03 3.79L72.03 3.79Q71.64 4.69 71.17 5L71.17 5L71.17 5Q70.70 5.31 69.71 5.31L69.71 5.31L64.53 5.31ZM106.13-6.68L106.13-30.59L113.07-30.59L113.07-5.02L113.07-5.02Q113.07-2.70 112.64-1.66L112.64-1.66L112.64-1.66Q111.78 0.47 109.65 1.33L109.65 1.33L109.65 1.33Q108.61 1.76 106.31 1.76L106.31 1.76L93.22 1.76L93.22 1.76Q90.92 1.76 89.88 1.33L89.88 1.33L89.88 1.33Q87.73 0.47 86.89-1.66L86.89-1.66L86.89-1.66Q86.46-2.71 86.46-5.02L86.46-5.02L86.46-30.59L93.40-30.59L93.40-6.68L93.40-6.68Q93.40-5.33 94.00-4.71L94.00-4.71L94.00-4.71Q94.61-4.10 95.94-4.10L95.94-4.10L103.59-4.10L103.59-4.10Q104.92-4.10 105.53-4.71L105.53-4.71L105.53-4.71Q106.13-5.33 106.13-6.68L106.13-6.68ZM117.58-31.45L124.79-31.45L124.79 1.76L117.58 1.76L117.58-31.45Z"></path></g> <!----></g> <!----></g></g></svg>